# xmcd CD database file
#
# Track frame offsets:
#	150
#	3772
#	22487
#	51900
#	135560
#	145785
#	166917
#	172647
#	192510
#	202145
#	237690
#	250265
#
# Disc length: 3495 seconds
#
# Revision: 0
# Processed by: cddbd v1.4PL0 Copyright (c) Steve Scherf et al.
# Submitted via: CDex 1.51
#
DISCID=a90da50c
DTITLE=Ehrlich, Lipold, Makan - Evolution of extasy
DYEAR=1900
DGENRE=New Age
TTITLE0=Trust in Grace
TTITLE1=Evolution of Ecstasy 1
TTITLE2=Evolution of Ecstasy 2
TTITLE3=Planetary Dance - Jupiter
TTITLE4=Winter intro
TTITLE5=Winter theme
TTITLE6=Satu
TTITLE7=Alhambra
TTITLE8=Tubastu
TTITLE9=Unter der Erd
TTITLE10=Zenrise
TTITLE11=Sun
EXTD=
EXTT0=
EXTT1=
EXTT2=
EXTT3=
EXTT4=
EXTT5=
EXTT6=
EXTT7=
EXTT8=
EXTT9=
EXTT10=
EXTT11=
PLAYORDER=
